<mxfile host="app.diagrams.net" modified="2023-10-17T03:21:06.588Z" agent="Mozilla/5.0 (Windows NT 10.0; Win64; x64) AppleWebKit/537.36 (KHTML, like Gecko) Chrome/118.0.0.0 Safari/537.36 Edg/118.0.2088.46" version="22.0.4" etag="ElBfGMgP2me9HF3ElGcz" type="github">
  <diagram name="Page-1" id="86bAQYMQag5FeS7qMVLf">
    <mxGraphModel>
      <root>
        <mxCell id="0" />
        <mxCell id="1" parent="0" />
      </root>
    </mxGraphModel>
  </diagram>
</mxfile>
